<svg width="20" height="20" viewBox="0 0 20 20" fill="none" xmlns="http://www.w3.org/2000/svg">
<g id="u:calculator">
<path id="Vector" d="M10.5917 14.4083C10.5507 14.3706 10.506 14.3371 10.4583 14.3083C10.4158 14.2754 10.3679 14.25 10.3167 14.2333C10.267 14.208 10.2135 14.1911 10.1583 14.1833C9.99868 14.1496 9.83245 14.1671 9.68333 14.2333C9.57992 14.2708 9.486 14.3305 9.40824 14.4082C9.33047 14.486 9.27076 14.5799 9.23333 14.6833C9.18668 14.7822 9.16385 14.8907 9.16667 15C9.16534 15.1083 9.18515 15.2159 9.225 15.3167C9.27332 15.4162 9.335 15.5088 9.40833 15.5917C9.4862 15.6689 9.57855 15.73 9.68008 15.7715C9.78161 15.8129 9.89033 15.834 10 15.8333C10.1093 15.8362 10.2178 15.8133 10.3167 15.7667C10.4177 15.7245 10.5107 15.6653 10.5917 15.5917C10.6689 15.5138 10.73 15.4215 10.7715 15.3199C10.8129 15.2184 10.834 15.1097 10.8333 15C10.832 14.8911 10.8094 14.7835 10.7667 14.6833C10.727 14.581 10.6675 14.4876 10.5917 14.4083ZM7.125 10.975C7.08246 10.942 7.03453 10.9166 6.98333 10.9C6.9348 10.8688 6.88123 10.8463 6.825 10.8333C6.7181 10.8084 6.6069 10.8084 6.5 10.8333L6.35 10.8833L6.2 10.9583L6.075 11.0583C5.91877 11.2222 5.83215 11.4403 5.83333 11.6667C5.8327 11.7763 5.85372 11.8851 5.89519 11.9866C5.93666 12.0881 5.99777 12.1805 6.075 12.2583C6.156 12.3319 6.24901 12.3911 6.35 12.4333C6.47625 12.4852 6.6133 12.5053 6.74912 12.4918C6.88494 12.4783 7.01536 12.4316 7.12893 12.3559C7.24249 12.2802 7.33572 12.1777 7.40042 12.0576C7.46513 11.9374 7.49932 11.8032 7.5 11.6667C7.49693 11.446 7.41061 11.2347 7.25833 11.075L7.125 10.975ZM7.25833 14.4083C7.17908 14.3325 7.08563 14.273 6.98333 14.2333C6.83248 14.1634 6.66415 14.1402 6.5 14.1667L6.35 14.2167C6.2969 14.2349 6.24645 14.2601 6.2 14.2917C6.15634 14.3224 6.1146 14.3558 6.075 14.3917C5.99913 14.4709 5.93966 14.5644 5.9 14.6667C5.85591 14.7664 5.83314 14.8743 5.83314 14.9833C5.83314 15.0924 5.85591 15.2003 5.9 15.3C5.9422 15.401 6.00139 15.494 6.075 15.575C6.15148 15.6553 6.2432 15.7194 6.3448 15.7638C6.4464 15.8082 6.55582 15.8318 6.66667 15.8333C6.77598 15.8362 6.88443 15.8133 6.98333 15.7667C7.08432 15.7245 7.17733 15.6653 7.25833 15.5917C7.33194 15.5107 7.39113 15.4177 7.43333 15.3167C7.47742 15.2169 7.50019 15.1091 7.50019 15C7.50019 14.8909 7.47742 14.7831 7.43333 14.6833C7.39367 14.581 7.3342 14.4876 7.25833 14.4083ZM9.68333 10.9C9.58104 10.9397 9.48759 10.9991 9.40833 11.075C9.25605 11.2347 9.16974 11.446 9.16667 11.6667C9.16735 11.8032 9.20154 11.9374 9.26624 12.0576C9.33094 12.1777 9.42417 12.2802 9.53774 12.3559C9.6513 12.4316 9.78173 12.4783 9.91754 12.4918C10.0534 12.5053 10.1904 12.4852 10.3167 12.4333C10.4177 12.3911 10.5107 12.3319 10.5917 12.2583C10.6689 12.1805 10.73 12.0881 10.7715 11.9866C10.8129 11.8851 10.834 11.7763 10.8333 11.6667C10.8303 11.446 10.7439 11.2347 10.5917 11.075C10.4745 10.9594 10.3257 10.881 10.164 10.8499C10.0024 10.8187 9.83509 10.8362 9.68333 10.9ZM13.925 14.4083C13.844 14.3347 13.751 14.2755 13.65 14.2333C13.4982 14.1695 13.331 14.1521 13.1693 14.1832C13.0077 14.2144 12.8589 14.2927 12.7417 14.4083C12.6658 14.4876 12.6063 14.581 12.5667 14.6833C12.5226 14.7831 12.4998 14.8909 12.4998 15C12.4998 15.1091 12.5226 15.2169 12.5667 15.3167C12.6089 15.4177 12.6681 15.5107 12.7417 15.5917C12.8195 15.6689 12.9119 15.73 13.0134 15.7715C13.1149 15.8129 13.2237 15.834 13.3333 15.8333C13.4426 15.8362 13.5511 15.8133 13.65 15.7667C13.751 15.7245 13.844 15.6653 13.925 15.5917C14.0406 15.4745 14.119 15.3257 14.1501 15.164C14.1813 15.0024 14.1638 14.8351 14.1 14.6833C14.0603 14.581 14.0009 14.4876 13.925 14.4083ZM13.3333 4.16667H6.66667C6.44565 4.16667 6.23369 4.25447 6.07741 4.41075C5.92113 4.56703 5.83333 4.77899 5.83333 5V8.33333C5.83333 8.55435 5.92113 8.76631 6.07741 8.92259C6.23369 9.07887 6.44565 9.16667 6.66667 9.16667H13.3333C13.5543 9.16667 13.7663 9.07887 13.9226 8.92259C14.0789 8.76631 14.1667 8.55435 14.1667 8.33333V5C14.1667 4.77899 14.0789 4.56703 13.9226 4.41075C13.7663 4.25447 13.5543 4.16667 13.3333 4.16667ZM12.5 7.5H7.5V5.83333H12.5V7.5ZM15 0.833334H5C4.33696 0.833334 3.70107 1.09673 3.23223 1.56557C2.76339 2.03441 2.5 2.67029 2.5 3.33333V16.6667C2.5 17.3297 2.76339 17.9656 3.23223 18.4344C3.70107 18.9033 4.33696 19.1667 5 19.1667H15C15.663 19.1667 16.2989 18.9033 16.7678 18.4344C17.2366 17.9656 17.5 17.3297 17.5 16.6667V3.33333C17.5 2.67029 17.2366 2.03441 16.7678 1.56557C16.2989 1.09673 15.663 0.833334 15 0.833334ZM15.8333 16.6667C15.8333 16.8877 15.7455 17.0996 15.5893 17.2559C15.433 17.4122 15.221 17.5 15 17.5H5C4.77899 17.5 4.56702 17.4122 4.41074 17.2559C4.25446 17.0996 4.16667 16.8877 4.16667 16.6667V3.33333C4.16667 3.11232 4.25446 2.90036 4.41074 2.74408C4.56702 2.5878 4.77899 2.5 5 2.5H15C15.221 2.5 15.433 2.5878 15.5893 2.74408C15.7455 2.90036 15.8333 3.11232 15.8333 3.33333V16.6667ZM13.7917 10.975C13.7491 10.942 13.7012 10.9166 13.65 10.9C13.6004 10.8746 13.5469 10.8577 13.4917 10.85C13.3848 10.8251 13.2736 10.8251 13.1667 10.85L13.0167 10.9L12.8667 10.975L12.7417 11.075C12.5894 11.2347 12.5031 11.446 12.5 11.6667C12.5007 11.8032 12.5349 11.9374 12.5996 12.0576C12.6643 12.1777 12.7575 12.2802 12.8711 12.3559C12.9846 12.4316 13.1151 12.4783 13.2509 12.4918C13.3867 12.5053 13.5238 12.4852 13.65 12.4333C13.751 12.3911 13.844 12.3319 13.925 12.2583C14.0022 12.1805 14.0633 12.0881 14.1048 11.9866C14.1463 11.8851 14.1673 11.7763 14.1667 11.6667C14.1636 11.446 14.0773 11.2347 13.925 11.075L13.7917 10.975Z" fill="black"/>
<rect id="Rectangle 7324" x="5" y="10" width="10" height="6" fill="white"/>
</g>
</svg>
