<svg width="21" height="21" viewBox="0 0 21 21" fill="none" xmlns="http://www.w3.org/2000/svg">
<g id="u:mars">
<path id="Vector" d="M17.3165 3.73314C17.2319 3.52952 17.0701 3.36771 16.8665 3.28314C16.7663 3.24044 16.6587 3.21779 16.5498 3.21648H13.2165C12.9954 3.21648 12.7835 3.30427 12.6272 3.46055C12.4709 3.61683 12.3831 3.8288 12.3831 4.04981C12.3831 4.27082 12.4709 4.48278 12.6272 4.63907C12.7835 4.79535 12.9954 4.88314 13.2165 4.88314H14.5415L12.5415 6.88314C11.3606 5.99935 9.88869 5.59572 8.42216 5.75352C6.95563 5.91132 5.60332 6.61883 4.63746 7.73362C3.67161 8.84841 3.16393 10.2877 3.21662 11.7618C3.26931 13.2358 3.87846 14.6352 4.92144 15.6782C5.96442 16.7212 7.36379 17.3303 8.83785 17.383C10.3119 17.4357 11.7512 16.928 12.866 15.9621C13.9808 14.9963 14.6883 13.644 14.8461 12.1774C15.0039 10.7109 14.6003 9.23905 13.7165 8.05814L15.7165 6.05814V7.38314C15.7165 7.60416 15.8043 7.81612 15.9605 7.9724C16.1168 8.12868 16.3288 8.21648 16.5498 8.21648C16.7708 8.21648 16.9828 8.12868 17.1391 7.9724C17.2953 7.81612 17.3831 7.60416 17.3831 7.38314V4.04981C17.3818 3.94091 17.3592 3.83333 17.3165 3.73314ZM11.9665 14.4665C11.3871 15.0575 10.6449 15.4627 9.83437 15.6302C9.02387 15.7978 8.18183 15.7201 7.41562 15.4072C6.64941 15.0943 5.99374 14.5603 5.53221 13.8733C5.07068 13.1863 4.8242 12.3774 4.8242 11.5498C4.8242 10.7222 5.07068 9.91328 5.53221 9.22628C5.99374 8.53928 6.64941 8.00528 7.41562 7.69239C8.18183 7.37949 9.02387 7.30187 9.83437 7.46942C10.6449 7.63696 11.3871 8.04209 11.9665 8.63314C12.7299 9.41201 13.1575 10.4592 13.1575 11.5498C13.1575 12.6404 12.7299 13.6876 11.9665 14.4665Z" fill="black"/>
</g>
</svg>
